<svg width="31" height="31" viewBox="0 0 31 31" fill="none" xmlns="http://www.w3.org/2000/svg">
<path d="M15.0157 11.3777C13.8222 11.3777 12.6776 11.8518 11.8337 12.6957C10.9898 13.5396 10.5157 14.6842 10.5157 15.8777C10.5157 17.0712 10.9898 18.2158 11.8337 19.0597C12.6776 19.9036 13.8222 20.3777 15.0157 20.3777C16.2091 20.3777 17.3537 19.9036 18.1976 19.0597C19.0416 18.2158 19.5157 17.0712 19.5157 15.8777C19.5157 14.6842 19.0416 13.5396 18.1976 12.6957C17.3537 11.8518 16.2091 11.3777 15.0157 11.3777ZM15.0157 8.37769C17.0048 8.37769 18.9124 9.16786 20.319 10.5744C21.7255 11.9809 22.5157 13.8886 22.5157 15.8777C22.5157 17.8668 21.7255 19.7745 20.319 21.181C18.9124 22.5875 17.0048 23.3777 15.0157 23.3777C13.0265 23.3777 11.1189 22.5875 9.71236 21.181C8.30584 19.7745 7.51566 17.8668 7.51566 15.8777C7.51566 13.8886 8.30584 11.9809 9.71236 10.5744C11.1189 9.16786 13.0265 8.37769 15.0157 8.37769ZM24.7657 8.00269C24.7657 8.49997 24.5681 8.97688 24.2165 9.32851C23.8649 9.68014 23.3879 9.87769 22.8907 9.87769C22.3934 9.87769 21.9165 9.68014 21.5648 9.32851C21.2132 8.97688 21.0157 8.49997 21.0157 8.00269C21.0157 7.5054 21.2132 7.02849 21.5648 6.67686C21.9165 6.32523 22.3934 6.12769 22.8907 6.12769C23.3879 6.12769 23.8649 6.32523 24.2165 6.67686C24.5681 7.02849 24.7657 7.5054 24.7657 8.00269ZM15.0157 3.87769C11.3047 3.87769 10.6987 3.88819 8.97216 3.96469C7.79616 4.02019 7.00716 4.17769 6.27516 4.46269C5.66291 4.68824 5.10924 5.04864 4.65516 5.51719C4.18607 5.97111 3.82515 6.52479 3.59916 7.13719C3.31416 7.87219 3.15666 8.65969 3.10266 9.83419C3.02466 11.4902 3.01416 12.0692 3.01416 15.8777C3.01416 19.5902 3.02466 20.1947 3.10116 21.9212C3.15666 23.0957 3.31416 23.8862 3.59766 24.6167C3.85266 25.2692 4.15266 25.7387 4.65066 26.2367C5.15616 26.7407 5.62566 27.0422 6.27066 27.2912C7.01166 27.5777 7.80066 27.7367 8.97066 27.7907C10.6267 27.8687 11.2057 27.8777 15.0142 27.8777C18.7267 27.8777 19.3312 27.8672 21.0577 27.7907C22.2307 27.7352 23.0197 27.5777 23.7532 27.2942C24.3654 27.0686 24.9191 26.7082 25.3732 26.2397C25.8787 25.7357 26.1802 25.2662 26.4292 24.6197C26.7142 23.8817 26.8732 23.0927 26.9272 21.9197C27.0052 20.2652 27.0142 19.6847 27.0142 15.8777C27.0142 12.1667 27.0037 11.5607 26.9272 9.83419C26.8717 8.66119 26.7127 7.86919 26.4292 7.13719C26.2036 6.52493 25.8432 5.97127 25.3747 5.51719C24.9207 5.0481 24.3671 4.68718 23.7547 4.46119C23.0197 4.17619 22.2307 4.01869 21.0577 3.96469C19.4032 3.88669 18.8242 3.87769 15.0142 3.87769M15.0142 0.877686C19.0897 0.877686 19.5982 0.892685 21.1987 0.967685C22.7947 1.04269 23.8837 1.29319 24.8392 1.66519C25.8292 2.04619 26.6632 2.56219 27.4972 3.39469C28.2602 4.14428 28.8504 5.05139 29.2267 6.05269C29.5972 7.00819 29.8492 8.09719 29.9242 9.69469C29.9947 11.2937 30.0142 11.8022 30.0142 15.8777C30.0142 19.9532 29.9992 20.4617 29.9242 22.0607C29.8492 23.6597 29.5972 24.7457 29.2267 25.7027C28.8504 26.704 28.2602 27.6111 27.4972 28.3607C26.7476 29.1237 25.8405 29.714 24.8392 30.0902C23.8837 30.4607 22.7947 30.7127 21.1987 30.7877C19.5982 30.8582 19.0897 30.8777 15.0142 30.8777C10.9387 30.8777 10.4302 30.8627 8.82966 30.7877C7.23366 30.7127 6.14616 30.4607 5.18916 30.0902C4.18787 29.714 3.28076 29.1237 2.53116 28.3607C1.76812 27.6111 1.17788 26.704 0.80166 25.7027C0.42966 24.7472 0.17916 23.6582 0.10416 22.0607C0.0321601 20.4617 0.0141602 19.9532 0.0141602 15.8777C0.0141602 11.8022 0.0291601 11.2937 0.10416 9.69469C0.17916 8.09569 0.42966 7.00969 0.80166 6.05269C1.17788 5.05139 1.76812 4.14428 2.53116 3.39469C3.28076 2.63165 4.18787 2.04141 5.18916 1.66519C6.14466 1.29319 7.23216 1.04269 8.82966 0.967685C10.4317 0.897185 10.9402 0.877686 15.0157 0.877686" fill="#3C3C3C"/>
</svg>
