<svg width="31" height="31" viewBox="0 0 31 31" fill="none" xmlns="http://www.w3.org/2000/svg">
<path d="M15.0142 0.877686C6.73416 0.877686 0.0141602 7.59769 0.0141602 15.8777C0.0141602 24.1577 6.73416 30.8777 15.0142 30.8777C23.2942 30.8777 30.0142 24.1577 30.0142 15.8777C30.0142 7.59769 23.2942 0.877686 15.0142 0.877686ZM21.9742 11.0777C21.7492 13.4477 20.7742 19.2077 20.2792 21.8627C20.0692 22.9877 19.6492 23.3627 19.2592 23.4077C18.3892 23.4827 17.7292 22.8377 16.8892 22.2827C15.5692 21.4127 14.8192 20.8727 13.5442 20.0327C12.0592 19.0577 13.0192 18.5177 13.8742 17.6477C14.0992 17.4227 17.9392 13.9277 18.0142 13.6127C18.0246 13.565 18.0232 13.5154 18.0101 13.4684C17.9971 13.4213 17.9727 13.3782 17.9392 13.3427C17.8492 13.2677 17.7292 13.2977 17.6242 13.3127C17.4892 13.3427 15.3892 14.7377 11.2942 17.4977C10.6942 17.9027 10.1542 18.1127 9.67416 18.0977C9.13416 18.0827 8.11416 17.7977 7.34916 17.5427C6.40416 17.2427 5.66916 17.0777 5.72916 16.5527C5.75916 16.2827 6.13416 16.0127 6.83916 15.7277C11.2192 13.8227 14.1292 12.5627 15.5842 11.9627C19.7542 10.2227 20.6092 9.92269 21.1792 9.92269C21.2992 9.92269 21.5842 9.95268 21.7642 10.1027C21.9142 10.2227 21.9592 10.3877 21.9742 10.5077C21.9592 10.5977 21.9892 10.8677 21.9742 11.0777Z" fill="#3C3C3C"/>
</svg>
