<svg width="25" height="31" viewBox="0 0 25 31" fill="none" xmlns="http://www.w3.org/2000/svg">
<path d="M21.2419 14.8305C20.8049 14.5024 20.3402 14.2129 19.853 13.9652C19.3364 10.9541 17.5739 8.76935 14.9197 7.96519C11.9503 7.06519 8.52666 8.15824 6.9586 10.5082C6.83713 10.6906 6.75277 10.8952 6.71035 11.1102C6.66792 11.3252 6.66825 11.5464 6.71133 11.7613C6.7544 11.9761 6.83938 12.1804 6.9614 12.3624C7.08342 12.5444 7.2401 12.7007 7.42249 12.8221C7.79085 13.0675 8.24158 13.1564 8.67551 13.0694C9.10945 12.9824 9.49106 12.7266 9.73638 12.3582C10.4961 11.2194 12.3906 10.6805 13.96 11.1555C14.4007 11.286 14.8108 11.5038 15.1658 11.7958C15.5208 12.0878 15.8135 12.4482 16.0267 12.8555C15.6178 12.8137 15.2071 12.7929 14.7961 12.793C10.0919 12.793 6.68083 15.4916 6.68083 19.211C6.68083 22.3916 9.11694 24.6999 12.4739 24.6999C13.4406 24.6944 14.3965 24.4949 15.2847 24.1132C16.1729 23.7315 16.9754 23.1753 17.6447 22.4777C18.4781 21.6124 19.4336 20.1916 19.8281 18.0235C20.6892 18.9152 21.1253 20.061 21.1253 21.4388C21.1253 23.9027 18.4767 27.5499 12.7919 27.5499C6.43638 27.5499 3.34749 23.7332 3.34749 15.8832C3.34749 8.03324 6.43638 4.21657 12.7919 4.21657C17.1086 4.21657 19.8753 5.94157 21.2364 9.49435C21.3951 9.90691 21.7113 10.2395 22.1153 10.419C22.5193 10.5984 22.978 10.6101 23.3905 10.4513C23.8031 10.2925 24.1357 9.97639 24.3152 9.5724C24.4946 9.16842 24.5063 8.70969 24.3475 8.29713C22.4822 3.4388 18.4864 0.877686 12.7919 0.877686C4.55166 0.877686 0.0141602 6.20407 0.0141602 15.8777C0.0141602 25.5513 4.55166 30.8777 12.7919 30.8777C17.1475 30.8777 19.8864 29.2041 21.4183 27.8013C23.3211 26.0555 24.4586 23.6749 24.4586 21.4332C24.4586 18.7055 23.3475 16.4221 21.2419 14.8305ZM15.2419 20.1624C14.8846 20.5381 14.4555 20.8383 13.98 21.0451C13.5045 21.252 12.9924 21.3613 12.4739 21.3666C11.3392 21.3666 10.0142 20.8027 10.0142 19.211C10.0142 17.0916 12.4919 16.1263 14.7933 16.1263C15.4248 16.1256 16.0542 16.1964 16.6697 16.3374C16.5919 17.9513 16.103 19.268 15.2419 20.1624Z" fill="#3C3C3C"/>
</svg>
